<svg width="19" height="19" viewBox="0 0 19 19" fill="none" xmlns="http://www.w3.org/2000/svg">
<g clip-path="url(#clip0_67_85)">
<path d="M1.51099 3.76996L6.79925 1.50806L11.332 3.76996L16.0937 1.73349C16.1512 1.7089 16.2139 1.69894 16.2762 1.7045C16.3385 1.71006 16.3984 1.73096 16.4506 1.76534C16.5028 1.79972 16.5457 1.8465 16.5753 1.90148C16.6049 1.95645 16.6204 2.0179 16.6203 2.08032V14.3255L11.332 16.5874L6.79925 14.3255L2.03755 16.362C1.98007 16.3866 1.91737 16.3965 1.85508 16.391C1.79278 16.3854 1.73285 16.3645 1.68065 16.3301C1.62846 16.2958 1.58563 16.249 1.55602 16.194C1.5264 16.139 1.51093 16.0776 1.51099 16.0152V3.76996ZM11.332 14.9015V5.4106L11.2829 5.43171L6.79925 3.19393V12.6849L6.84835 12.6638L11.332 14.9015Z" fill="#2B2B2B"/>
</g>
<defs>
<clipPath id="clip0_67_85">
<rect width="18.1312" height="18.0952" fill="white"/>
</clipPath>
</defs>
</svg>
