<svg width="19" height="19" viewBox="0 0 19 19" fill="none" xmlns="http://www.w3.org/2000/svg">
<g clip-path="url(#clip0_68_32)">
<path d="M2.26645 2.26196H15.8648C16.0652 2.26196 16.2574 2.3414 16.399 2.4828C16.5407 2.62419 16.6203 2.81597 16.6203 3.01593V15.0794C16.6203 15.2794 16.5407 15.4712 16.399 15.6126C16.2574 15.754 16.0652 15.8334 15.8648 15.8334H2.26645C2.06609 15.8334 1.87393 15.754 1.73226 15.6126C1.59058 15.4712 1.51099 15.2794 1.51099 15.0794V3.01593C1.51099 2.81597 1.59058 2.62419 1.73226 2.4828C1.87393 2.3414 2.06609 2.26196 2.26645 2.26196V2.26196ZM9.11098 8.80867L4.26693 4.70331L3.2886 5.85236L9.1208 10.7946L14.848 5.84859L13.8598 4.70784L9.11173 8.80867H9.11098Z" fill="#2B2B2B"/>
</g>
<defs>
<clipPath id="clip0_68_32">
<rect width="18.1312" height="18.0952" fill="white"/>
</clipPath>
</defs>
</svg>
